<svg width="24" height="24" viewBox="0 0 24 24" fill="none" xmlns="http://www.w3.org/2000/svg">
<g id="Group 632643">
<circle id="Ellipse 218" cx="18.5" cy="3.5249" r="2" stroke="#202020"/>
<path id="Ellipse 219" d="M4.5 8.5249C4.5 9.62947 3.60457 10.5249 2.5 10.5249C1.39543 10.5249 0.5 9.62947 0.5 8.5249C0.5 7.42033 1.39543 6.5249 2.5 6.5249C3.60457 6.5249 4.5 7.42033 4.5 8.5249ZM16.5 17.4749C16.5 18.5795 15.6046 19.4749 14.5 19.4749C13.3954 19.4749 12.5 18.5795 12.5 17.4749C12.5 16.3703 13.3954 15.4749 14.5 15.4749C15.6046 15.4749 16.5 16.3703 16.5 17.4749Z" stroke="#202020"/>
<g id="Subtract">
<mask id="path-3-inside-1_893_1768" fill="white">
<path fill-rule="evenodd" clip-rule="evenodd" d="M19.6 9.46886C19.6 11.9405 18.4712 14.1578 16.6916 15.6353C16.9228 16.0457 17.0547 16.5194 17.0547 17.024C17.0547 17.0574 17.0541 17.0907 17.053 17.1238C19.4443 15.408 21 12.6185 21 9.46886C21 8.39684 20.8198 7.36653 20.4877 6.40609C20.1051 6.67053 19.6673 6.86074 19.1951 6.95589C19.4579 7.74707 19.6 8.59195 19.6 9.46886ZM15.2113 2.32452C15.3749 1.87632 15.6276 1.47095 15.9478 1.12981C14.6132 0.424603 13.0894 0.0249023 11.4714 0.0249023C7.56236 0.0249023 4.20309 2.35793 2.73376 5.69575C2.78736 5.69278 2.84136 5.69127 2.89572 5.69127C3.34459 5.69127 3.7693 5.79382 4.1473 5.97656C5.45934 3.28683 8.24029 1.4249 11.4714 1.4249C12.8214 1.4249 14.0928 1.74991 15.2113 2.32452ZM3.55067 11.2829C4.3781 14.8323 7.5809 17.4939 11.4303 17.5127C11.5213 18.0362 11.756 18.5103 12.0922 18.8931C11.887 18.9062 11.68 18.9128 11.4714 18.9128C6.82324 18.9128 2.95242 15.6141 2.11206 11.2499C2.36109 11.3201 2.62398 11.3576 2.89572 11.3576C3.12108 11.3576 3.34035 11.3318 3.55067 11.2829Z"/>
</mask>
<path d="M16.6916 15.6353L16.0528 14.8659L15.4107 15.399L15.8203 16.1262L16.6916 15.6353ZM17.053 17.1238L16.0536 17.0892L15.9832 19.1221L17.6359 17.9363L17.053 17.1238ZM20.4877 6.40609L21.4328 6.07934L21.0025 4.83464L19.9191 5.58347L20.4877 6.40609ZM19.1951 6.95589L18.9976 5.97559L17.8898 6.19877L18.2461 7.27114L19.1951 6.95589ZM15.2113 2.32452L14.7543 3.21401L15.7621 3.73172L16.1506 2.66747L15.2113 2.32452ZM15.9478 1.12981L16.6769 1.81427L17.5744 0.858279L16.415 0.245661L15.9478 1.12981ZM2.73376 5.69575L1.81851 5.29285L1.16197 6.78428L2.78903 6.69422L2.73376 5.69575ZM4.1473 5.97656L3.71206 6.87687L4.6092 7.31059L5.04608 6.41498L4.1473 5.97656ZM11.4303 17.5127L12.4155 17.3414L12.2722 16.5168L11.4352 16.5127L11.4303 17.5127ZM3.55067 11.2829L4.52456 11.0559L4.2977 10.0827L3.32437 10.3089L3.55067 11.2829ZM12.0922 18.8931L12.1559 19.8911L14.1863 19.7616L12.8435 18.2331L12.0922 18.8931ZM2.11206 11.2499L2.3834 10.2874L0.823694 9.84768L1.1301 11.4389L2.11206 11.2499ZM17.3304 16.4047C19.3275 14.7465 20.6 12.2523 20.6 9.46886H18.6C18.6 11.6288 17.6148 13.569 16.0528 14.8659L17.3304 16.4047ZM18.0547 17.024C18.0547 16.343 17.8762 15.7007 17.5628 15.1444L15.8203 16.1262C15.9693 16.3906 16.0547 16.6958 16.0547 17.024H18.0547ZM18.0524 17.1584C18.0539 17.1138 18.0547 17.069 18.0547 17.024H16.0547C16.0547 17.0459 16.0543 17.0676 16.0536 17.0892L18.0524 17.1584ZM20 9.46886C20 12.2805 18.6127 14.7739 16.47 16.3113L17.6359 17.9363C20.2759 16.0421 22 12.9566 22 9.46886H20ZM19.5426 6.73284C19.8388 7.58967 20 8.50962 20 9.46886H22C22 8.28405 21.8007 7.14339 21.4328 6.07934L19.5426 6.73284ZM19.9191 5.58347C19.6457 5.77249 19.3336 5.90787 18.9976 5.97559L19.3926 7.93619C20.001 7.8136 20.5646 7.56857 21.0563 7.22871L19.9191 5.58347ZM20.6 9.46886C20.6 8.4833 20.4402 7.53205 20.1441 6.64064L18.2461 7.27114C18.4756 7.96209 18.6 8.70059 18.6 9.46886H20.6ZM16.1506 2.66747C16.2671 2.34837 16.4474 2.05869 16.6769 1.81427L15.2188 0.445362C14.8077 0.883213 14.4827 1.40426 14.2719 1.98156L16.1506 2.66747ZM11.4714 1.0249C12.923 1.0249 14.2868 1.38314 15.4806 2.01397L16.415 0.245661C14.9397 -0.53393 13.2559 -0.975098 11.4714 -0.975098V1.0249ZM3.649 6.09864C4.96276 3.11424 7.96907 1.0249 11.4714 1.0249V-0.975098C7.15565 -0.975098 3.44342 1.60162 1.81851 5.29285L3.649 6.09864ZM2.89572 4.69127C2.82291 4.69127 2.75048 4.69329 2.67849 4.69727L2.78903 6.69422C2.82424 6.69227 2.85981 6.69127 2.89572 6.69127V4.69127ZM4.58255 5.07625C4.07157 4.82922 3.49834 4.69127 2.89572 4.69127V6.69127C3.19085 6.69127 3.46704 6.75842 3.71206 6.87687L4.58255 5.07625ZM11.4714 0.424902C7.84695 0.424902 4.72328 2.51483 3.24853 5.53815L5.04608 6.41498C6.19539 4.05883 8.63363 2.4249 11.4714 2.4249V0.424902ZM15.6682 1.43503C14.4113 0.789306 12.9836 0.424902 11.4714 0.424902V2.4249C12.6592 2.4249 13.7743 2.71052 14.7543 3.21401L15.6682 1.43503ZM11.4352 16.5127C8.05353 16.4962 5.24796 14.1591 4.52456 11.0559L2.57679 11.51C3.50824 15.5056 7.10826 18.4916 11.4254 18.5127L11.4352 16.5127ZM12.8435 18.2331C12.6252 17.9846 12.4741 17.6783 12.4155 17.3414L10.4451 17.684C10.5685 18.394 10.8868 19.0361 11.341 19.5531L12.8435 18.2331ZM11.4714 19.9128C11.7012 19.9128 11.9295 19.9055 12.1559 19.8911L12.0286 17.8951C11.8446 17.9068 11.6588 17.9128 11.4714 17.9128V19.9128ZM1.1301 11.4389C2.06057 16.2712 6.34108 19.9128 11.4714 19.9128V17.9128C7.30541 17.9128 3.84427 14.9571 3.09402 11.0608L1.1301 11.4389ZM2.89572 10.3576C2.71656 10.3576 2.54495 10.3329 2.3834 10.2874L1.84072 12.2123C2.17723 12.3072 2.53139 12.3576 2.89572 12.3576V10.3576ZM3.32437 10.3089C3.18774 10.3406 3.04439 10.3576 2.89572 10.3576V12.3576C3.19777 12.3576 3.49296 12.323 3.77698 12.257L3.32437 10.3089Z" fill="#202020" mask="url(#path-3-inside-1_893_1768)"/>
</g>
</g>
</svg>
