<svg width="25" height="24" viewBox="0 0 25 24" fill="none" xmlns="http://www.w3.org/2000/svg">
<g id="Icons/Home/Filled">
<path id="Union" fill-rule="evenodd" clip-rule="evenodd" d="M11.7227 5.08398C11.8907 4.97201 12.1095 4.97201 12.2774 5.08397L20.7227 10.7142C20.9525 10.8674 21.2629 10.8053 21.4161 10.5755C21.5693 10.3457 21.5072 10.0353 21.2774 9.88212L12.8321 4.25192C12.3283 3.91602 11.6719 3.91603 11.168 4.25192L2.7227 9.88212C2.49294 10.0353 2.43085 10.3457 2.58403 10.5755C2.7372 10.8053 3.04764 10.8674 3.2774 10.7142L11.7227 5.08398ZM5.00005 10.6881C5.00005 10.3547 5.16614 10.0433 5.44294 9.85763L11.4429 5.83246C11.7799 5.60637 12.2202 5.60638 12.5572 5.83246L18.5572 9.85763C18.834 10.0433 19.0001 10.3547 19.0001 10.6881V19.2982C19.0001 19.8505 18.5523 20.2982 18.0001 20.2982H14.0001V14.5907H10.0001V20.2982L6.00005 20.2982C5.44777 20.2982 5.00005 19.8505 5.00005 19.2982V10.6881Z" fill="#202020"/>
</g>
</svg>
