<svg width="25" height="24" viewBox="0 0 25 24" fill="none" xmlns="http://www.w3.org/2000/svg">
<g id="Icons/Home/Outlined">
<path id="Union" fill-rule="evenodd" clip-rule="evenodd" d="M12.7628 3.16228L12.5001 3L12.2373 3.16228L3.73732 8.41228C3.50238 8.5574 3.42956 8.86549 3.57467 9.10043C3.71978 9.33537 4.02787 9.40819 4.26282 9.26308L5.50894 8.49342C5.50312 8.52394 5.50007 8.55546 5.50007 8.58768V18.5877C5.50007 19.4161 6.17164 20.0877 7.00007 20.0877H18.0001C18.8285 20.0877 19.5001 19.4161 19.5001 18.5877V8.58768C19.5001 8.55546 19.497 8.52394 19.4912 8.49342L20.7373 9.26308C20.9723 9.40819 21.2804 9.33537 21.4255 9.10043C21.5706 8.86549 21.4978 8.5574 21.2628 8.41228L12.7628 3.16228ZM18.8644 8.1063L12.5001 4.17537L6.1357 8.1063C6.34594 8.16541 6.50007 8.35855 6.50007 8.58768V18.5877C6.50007 18.8638 6.72393 19.0877 7.00007 19.0877H9.50007V13.5877C9.50007 12.7593 10.1716 12.0877 11.0001 12.0877H14.0001C14.8285 12.0877 15.5001 12.7593 15.5001 13.5877V19.0877H18.0001C18.2762 19.0877 18.5001 18.8638 18.5001 18.5877V8.58768C18.5001 8.35855 18.6542 8.16541 18.8644 8.1063ZM14.5001 13.5877V19.0877H10.5001V13.5877C10.5001 13.3115 10.7239 13.0877 11.0001 13.0877H14.0001C14.2762 13.0877 14.5001 13.3115 14.5001 13.5877Z" fill="#202020"/>
</g>
</svg>
