<svg width="23" height="25" viewBox="0 0 23 25" fill="none" xmlns="http://www.w3.org/2000/svg">
<g id="Search">
<g id="Vector">
<path fill-rule="evenodd" clip-rule="evenodd" d="M10.6635 16.3954C14.3278 16.1391 17.0907 12.9608 16.8344 9.29643C16.5782 5.63203 13.3999 2.86919 9.73558 3.12542C6.07123 3.38166 3.30839 6.55995 3.56463 10.2243C3.82087 13.8887 6.99915 16.6516 10.6635 16.3954ZM10.7681 17.8917C15.2589 17.5777 18.6448 13.6826 18.3308 9.1918C18.0168 4.701 14.1217 1.31505 9.63094 1.62908C5.14018 1.9431 1.75426 5.83818 2.06829 10.329C2.38232 14.8198 6.27737 18.2057 10.7681 17.8917Z" fill="#202020"/>
<path fill-rule="evenodd" clip-rule="evenodd" d="M14.308 16.0256C14.6187 15.7516 15.0927 15.7814 15.3666 16.0921L20.6586 22.0941C20.9325 22.4048 20.9027 22.8788 20.592 23.1527C20.2813 23.4266 19.8074 23.3968 19.5335 23.0861L14.2415 17.0841C13.9676 16.7734 13.9974 16.2995 14.308 16.0256Z" fill="#202020"/>
</g>
</g>
</svg>
