<svg width="25" height="24" viewBox="0 0 25 24" fill="none" xmlns="http://www.w3.org/2000/svg">
<g id="Icons/Profile/Filled">
<path id="Ellipse 210" d="M17 8.5C17 10.7091 15.2091 12.5 13 12.5C10.7909 12.5 9 10.7091 9 8.5C9 6.29086 10.7909 4.5 13 4.5C15.2091 4.5 17 6.29086 17 8.5Z" fill="#202020" stroke="#202020"/>
<g id="Intersect">
<mask id="path-2-inside-1_893_1784" fill="white">
<path fill-rule="evenodd" clip-rule="evenodd" d="M5.58014 20.2601C6.53564 17.2628 9.76595 15.1114 13.5412 15.2154C17.0468 15.312 19.976 17.3245 21.0084 20.0496C18.9647 22.1724 16.0688 23.4602 12.8913 23.3726C10.0352 23.2939 7.46735 22.1182 5.58014 20.2601Z"/>
</mask>
<path fill-rule="evenodd" clip-rule="evenodd" d="M5.58014 20.2601C6.53564 17.2628 9.76595 15.1114 13.5412 15.2154C17.0468 15.312 19.976 17.3245 21.0084 20.0496C18.9647 22.1724 16.0688 23.4602 12.8913 23.3726C10.0352 23.2939 7.46735 22.1182 5.58014 20.2601Z" fill="#202020"/>
<path d="M5.58014 20.2601L4.62738 19.9563L4.44079 20.5416L4.87855 20.9727L5.58014 20.2601ZM21.0084 20.0496L21.7288 20.7432L22.1677 20.2872L21.9435 19.6954L21.0084 20.0496ZM6.53289 20.5638C7.33057 18.0617 10.1049 16.1211 13.5137 16.215L13.5688 14.2158C9.42702 14.1016 5.74072 16.464 4.62738 19.9563L6.53289 20.5638ZM13.5137 16.215C16.6727 16.3021 19.2043 18.1102 20.0732 20.4039L21.9435 19.6954C20.7477 16.5388 17.4209 14.3219 13.5688 14.2158L13.5137 16.215ZM20.288 19.3561C18.4313 21.2847 15.8034 22.4525 12.9189 22.373L12.8638 24.3722C16.3342 24.4679 19.4982 23.0601 21.7288 20.7432L20.288 19.3561ZM12.9189 22.373C10.3255 22.3015 7.99581 21.2351 6.28173 19.5475L4.87855 20.9727C6.93888 23.0012 9.74488 24.2863 12.8638 24.3722L12.9189 22.373Z" fill="#202020" mask="url(#path-2-inside-1_893_1784)"/>
</g>
</g>
</svg>
