<svg width="25" height="24" viewBox="0 0 25 24" fill="none" xmlns="http://www.w3.org/2000/svg">
<g id="Icons/Profile/Outline">
<path id="Ellipse 210" d="M16.75 8.5C16.75 10.5711 15.0711 12.25 13 12.25C10.9289 12.25 9.25 10.5711 9.25 8.5C9.25 6.42893 10.9289 4.75 13 4.75C15.0711 4.75 16.75 6.42893 16.75 8.5Z" stroke="#202020" stroke-width="1.5"/>
<g id="Intersect">
<mask id="path-2-inside-1_919_2088" fill="white">
<path fill-rule="evenodd" clip-rule="evenodd" d="M5.58014 20.2601C6.53564 17.2628 9.76595 15.1114 13.5412 15.2154C17.0468 15.312 19.976 17.3245 21.0084 20.0496C18.9647 22.1724 16.0688 23.4602 12.8913 23.3726C10.0352 23.2939 7.46735 22.1182 5.58014 20.2601Z"/>
</mask>
<path d="M5.58014 20.2601L4.151 19.8045L3.87111 20.6824L4.52775 21.3289L5.58014 20.2601ZM21.0084 20.0496L22.089 21.0899L22.7474 20.406L22.4111 19.5182L21.0084 20.0496ZM7.00927 20.7157C7.72803 18.4611 10.2743 16.6259 13.4999 16.7148L13.5826 13.716C9.25756 13.5968 5.34326 16.0646 4.151 19.8045L7.00927 20.7157ZM13.4999 16.7148C16.4856 16.7971 18.8185 18.5031 19.6057 20.581L22.4111 19.5182C21.1336 16.1459 17.6079 13.8269 13.5826 13.716L13.4999 16.7148ZM19.9278 19.0093C18.1645 20.8409 15.6707 21.9486 12.9326 21.8732L12.85 24.872C16.4668 24.9717 19.765 23.504 22.089 21.0899L19.9278 19.0093ZM12.9326 21.8732C10.4707 21.8053 8.26004 20.7936 6.63252 19.1912L4.52775 21.3289C6.67465 23.4427 9.59972 24.7825 12.85 24.872L12.9326 21.8732Z" fill="#202020" mask="url(#path-2-inside-1_919_2088)"/>
</g>
</g>
</svg>
