<svg width="108" height="87" viewBox="0 0 108 87" fill="none" xmlns="http://www.w3.org/2000/svg">
<path id="Union" fill-rule="evenodd" clip-rule="evenodd" d="M8.66055 86.42H99.3402C103.971 86.42 107.737 82.7185 107.737 78.1662V8.83394C107.737 4.28604 103.971 0.580078 99.3402 0.580078H8.66055C4.0342 0.580078 0.264269 4.28604 0.264269 8.83394V64.5777C0.263148 64.6295 0.263147 64.6812 0.264269 64.733V78.1662C0.264269 82.7185 4.0342 86.42 8.66055 86.42ZM6.98129 8.83394V56.9093L32.0003 33.7541C35.5593 30.4615 40.7744 30.3941 44.4093 33.5941L66.1185 52.7283L74.4277 45.8506C78.2251 42.7135 83.5222 42.7181 87.3069 45.8549L101.019 57.2019V8.83394C101.019 7.92189 100.264 7.18318 99.3402 7.18318H8.66055C7.73276 7.18318 6.98129 7.92189 6.98129 8.83394ZM101.019 66.3112V78.1662C101.019 79.0743 100.264 79.8171 99.3402 79.8171H8.66055C7.73276 79.8171 6.98129 79.0743 6.98129 78.1662V65.8578L36.1968 38.8193C37.379 37.7202 39.1187 37.699 40.3288 38.7644L60.9866 56.9761L55.2892 61.6921C53.8071 62.9184 53.5666 65.1533 54.7521 66.6907C55.9337 68.2193 58.0989 68.4771 59.5854 67.2462L78.7192 51.4051C79.9907 50.3563 81.7479 50.3563 83.0107 51.4051L101.019 66.3112ZM67.4328 25.106C67.4328 31.8696 73.4573 37.3689 80.8669 37.3689C88.2768 37.3689 94.3009 31.8696 94.3009 25.106C94.3009 18.3424 88.2768 12.8432 80.8669 12.8432C73.4573 12.8432 67.4328 18.3424 67.4328 25.106ZM74.1498 25.106C74.1498 21.7261 77.1641 18.9746 80.8669 18.9746C84.5696 18.9746 87.5839 21.7261 87.5839 25.106C87.5839 28.486 84.5696 31.2375 80.8669 31.2375C77.1641 31.2375 74.1498 28.486 74.1498 25.106Z" fill="#B6B6B6"/>
</svg>
