<svg width="74" height="19" viewBox="0 0 74 19" fill="none" xmlns="http://www.w3.org/2000/svg">
<g id="Graffix Logo">
<path id="Vector" d="M18.5517 9.02526C18.4993 8.49378 18.3157 8.09575 18.1263 7.81719C18.1251 7.81603 18.1245 7.81486 18.1234 7.8137C17.9025 7.52639 17.6152 7.29212 17.2848 7.13478C16.8751 6.97102 16.5027 6.92323 16.1804 6.93722C16.163 6.9378 16.1461 6.93897 16.1286 6.94013C16.1058 6.9413 16.0825 6.94305 16.0604 6.94538C16.0266 6.94829 15.9934 6.95237 15.9601 6.95703C15.9508 6.95762 15.9409 6.95936 15.9316 6.96111C15.9199 6.96286 15.9083 6.96461 15.8966 6.96636C15.8844 6.96811 15.8722 6.97044 15.8599 6.97277C15.8488 6.97452 15.8372 6.97685 15.8261 6.9786C15.815 6.98093 15.804 6.98326 15.7935 6.98559C15.7836 6.98734 15.7737 6.98967 15.7638 6.992C15.7521 6.99433 15.7404 6.99724 15.7294 6.99958C15.635 7.02172 15.5476 7.04853 15.4683 7.07708C15.4561 7.08174 15.4438 7.08582 15.4322 7.09049C15.3494 7.12137 15.2754 7.15459 15.2107 7.18723C15.2014 7.19189 15.1921 7.19655 15.1833 7.20121C15.1746 7.20529 15.1658 7.20995 15.1577 7.21462C15.1489 7.21928 15.1408 7.22336 15.1326 7.22802C15.1169 7.23676 15.1017 7.2455 15.0872 7.25366C15.0796 7.25774 15.0726 7.2624 15.0656 7.26648C15.0586 7.27114 15.051 7.27522 15.044 7.2793C15.0371 7.28396 15.0301 7.28804 15.0237 7.29212C15.0038 7.30494 14.9864 7.3166 14.9712 7.32709C14.9665 7.33 14.9619 7.3335 14.9578 7.33641C14.9426 7.34749 14.9275 7.35856 14.9123 7.36963C14.9094 7.37196 14.9071 7.37371 14.9042 7.37604C14.9024 7.37721 14.9019 7.37779 14.9019 7.37779C14.7142 7.65285 14.5266 7.87838 14.3406 8.06137C14.3045 8.10625 14.2661 8.14995 14.2258 8.19133C14.2328 8.17676 14.2404 8.16277 14.248 8.14879C12.6378 9.62201 11.1955 7.98386 11.1646 7.94832C11.164 7.94832 11.164 7.94773 11.164 7.94773C11.1081 7.86848 11.0469 7.79272 10.9816 7.72162C10.5597 7.25949 9.95244 6.96985 9.2776 6.96985C8.00309 6.96985 6.96985 8.00309 6.96985 9.2776C6.96985 10.5521 8.00309 11.5848 9.2776 11.5848C10.143 11.5848 10.8971 11.1086 11.2916 10.4041C12.7229 8.64938 14.2789 10.3714 14.2789 10.3714C14.7806 11.1564 14.5539 11.9263 14.3867 12.2975C13.354 14.0423 11.4525 15.2119 9.2776 15.2119C6.00013 15.2119 3.34331 12.5551 3.34331 9.27701C3.34331 5.99897 5.9372 3.40625 9.16046 3.3439C9.19951 3.34332 9.23855 3.34273 9.2776 3.34273C9.43203 3.34273 9.58471 3.34856 9.73623 3.36022C10.5877 3.24891 11.2427 2.53794 11.2427 1.67778C11.2427 0.864239 10.6558 0.184153 9.87143 0.0186484C9.67504 0.00641038 9.4769 0 9.2776 0H9.23039C4.1283 0.0256416 0 4.16909 0 9.27701C0 14.3849 4.15394 18.5546 9.2776 18.5546C14.4013 18.5546 18.3087 14.6437 18.5441 9.72924C18.5517 9.57947 18.5552 9.42853 18.5552 9.27701C18.5552 9.1931 18.554 9.10918 18.5517 9.02526ZM11.0725 10.7025C11.1046 10.6547 11.1366 10.608 11.1692 10.5643C11.118 10.6448 11.0807 10.6925 11.0725 10.7025ZM11.1926 7.99027C11.1955 7.99377 11.1978 7.99785 11.2001 8.00135C11.2252 8.03864 11.2491 8.07652 11.2706 8.11557C11.2462 8.07419 11.2199 8.03223 11.1926 7.99027Z" fill="black"/>
<path id="Vector_2" d="M9.7369 3.36026C9.65998 3.37133 9.58131 3.37657 9.50089 3.37657C9.38433 3.37657 9.27069 3.3655 9.16113 3.34394C9.20018 3.34336 9.23922 3.34277 9.27827 3.34277C9.4327 3.34277 9.58539 3.3486 9.7369 3.36026Z" fill="black"/>
<path id="Vector_3" d="M8.58666 9.27782C8.96838 9.27782 9.27782 8.96838 9.27782 8.58667C9.27782 8.20495 8.96838 7.89551 8.58666 7.89551C8.20495 7.89551 7.89551 8.20495 7.89551 8.58667C7.89551 8.96838 8.20495 9.27782 8.58666 9.27782Z" fill="white"/>
<path id="r" d="M19.957 18.5548V7.93484H22.997L23.137 11.3948L22.537 10.7348C22.697 10.1615 22.957 9.64818 23.317 9.19484C23.6904 8.74151 24.1237 8.38151 24.617 8.11484C25.1104 7.84818 25.637 7.71484 26.197 7.71484C26.437 7.71484 26.657 7.73484 26.857 7.77484C27.0704 7.81484 27.2637 7.86151 27.437 7.91484L26.557 11.4548C26.4104 11.3615 26.2104 11.2882 25.957 11.2348C25.717 11.1682 25.4637 11.1348 25.197 11.1348C24.9037 11.1348 24.6304 11.1882 24.377 11.2948C24.1237 11.3882 23.9104 11.5282 23.737 11.7148C23.5637 11.9015 23.4237 12.1215 23.317 12.3748C23.2237 12.6282 23.177 12.9148 23.177 13.2348V18.5548H19.957Z" fill="black"/>
<path id="a" d="M32.7767 18.7348C31.8833 18.7348 31.0833 18.5015 30.3767 18.0348C29.6833 17.5548 29.13 16.9015 28.7167 16.0748C28.3033 15.2348 28.0967 14.2882 28.0967 13.2348C28.0967 12.1548 28.3033 11.2015 28.7167 10.3748C29.13 9.54818 29.6967 8.90151 30.4167 8.43484C31.1367 7.95484 31.9567 7.71484 32.8767 7.71484C33.3833 7.71484 33.8433 7.78818 34.2567 7.93484C34.6833 8.08151 35.0567 8.28818 35.3767 8.55484C35.6967 8.80818 35.97 9.10818 36.1967 9.45484C36.4233 9.78818 36.59 10.1482 36.6967 10.5348L36.0367 10.4548V7.93484H39.2167V18.5548H35.9767V15.9948L36.6967 15.9748C36.59 16.3482 36.4167 16.7015 36.1767 17.0348C35.9367 17.3682 35.6433 17.6615 35.2967 17.9148C34.95 18.1682 34.5633 18.3682 34.1367 18.5148C33.71 18.6615 33.2567 18.7348 32.7767 18.7348ZM33.6567 16.0348C34.15 16.0348 34.5767 15.9215 34.9367 15.6948C35.2967 15.4682 35.5767 15.1482 35.7767 14.7348C35.9767 14.3082 36.0767 13.8082 36.0767 13.2348C36.0767 12.6615 35.9767 12.1682 35.7767 11.7548C35.5767 11.3282 35.2967 11.0015 34.9367 10.7748C34.5767 10.5348 34.15 10.4148 33.6567 10.4148C33.1767 10.4148 32.7567 10.5348 32.3967 10.7748C32.05 11.0015 31.7767 11.3282 31.5767 11.7548C31.3767 12.1682 31.2767 12.6615 31.2767 13.2348C31.2767 13.8082 31.3767 14.3082 31.5767 14.7348C31.7767 15.1482 32.05 15.4682 32.3967 15.6948C32.7567 15.9215 33.1767 16.0348 33.6567 16.0348Z" fill="black"/>
<path id="a_2" d="M32.7767 18.7348C31.8833 18.7348 31.0833 18.5015 30.3767 18.0348C29.6833 17.5548 29.13 16.9015 28.7167 16.0748C28.3033 15.2348 28.0967 14.2882 28.0967 13.2348C28.0967 12.1548 28.3033 11.2015 28.7167 10.3748C29.13 9.54818 29.6967 8.90151 30.4167 8.43484C31.1367 7.95484 31.9567 7.71484 32.8767 7.71484C33.3833 7.71484 33.8433 7.78818 34.2567 7.93484C34.6833 8.08151 35.0567 8.28818 35.3767 8.55484C35.6967 8.80818 35.97 9.10818 36.1967 9.45484C36.4233 9.78818 36.59 10.1482 36.6967 10.5348L36.0367 10.4548V7.93484H39.2167V18.5548H35.9767V15.9948L36.6967 15.9748C36.59 16.3482 36.4167 16.7015 36.1767 17.0348C35.9367 17.3682 35.6433 17.6615 35.2967 17.9148C34.95 18.1682 34.5633 18.3682 34.1367 18.5148C33.71 18.6615 33.2567 18.7348 32.7767 18.7348ZM33.6567 16.0348C34.15 16.0348 34.5767 15.9215 34.9367 15.6948C35.2967 15.4682 35.5767 15.1482 35.7767 14.7348C35.9767 14.3082 36.0767 13.8082 36.0767 13.2348C36.0767 12.6615 35.9767 12.1682 35.7767 11.7548C35.5767 11.3282 35.2967 11.0015 34.9367 10.7748C34.5767 10.5348 34.15 10.4148 33.6567 10.4148C33.1767 10.4148 32.7567 10.5348 32.3967 10.7748C32.05 11.0015 31.7767 11.3282 31.5767 11.7548C31.3767 12.1682 31.2767 12.6615 31.2767 13.2348C31.2767 13.8082 31.3767 14.3082 31.5767 14.7348C31.7767 15.1482 32.05 15.4682 32.3967 15.6948C32.7567 15.9215 33.1767 16.0348 33.6567 16.0348Z" fill="black"/>
<path id="f" d="M42.0302 18.5548V7.41484C42.0302 6.72151 42.1769 6.09484 42.4702 5.53484C42.7769 4.97484 43.1969 4.53484 43.7302 4.21484C44.2769 3.88151 44.9102 3.71484 45.6302 3.71484C46.1369 3.71484 46.6036 3.78818 47.0302 3.93484C47.4569 4.08151 47.8369 4.28818 48.1702 4.55484L47.2502 6.89484C47.0769 6.80151 46.9102 6.72818 46.7502 6.67484C46.5902 6.62151 46.4436 6.59484 46.3102 6.59484C46.0702 6.59484 45.8702 6.63484 45.7102 6.71484C45.5502 6.79484 45.4302 6.92151 45.3502 7.09484C45.2836 7.25484 45.2502 7.45484 45.2502 7.69484V18.5548H43.6502C43.2902 18.5548 42.9702 18.5548 42.6902 18.5548C42.4236 18.5548 42.2036 18.5548 42.0302 18.5548ZM40.4902 10.8748V8.23484H47.4302V10.8748H40.4902Z" fill="black"/>
<path id="f_2" d="M49.956 18.5548V7.41484C49.956 6.72151 50.1027 6.09484 50.396 5.53484C50.7027 4.97484 51.1227 4.53484 51.656 4.21484C52.2027 3.88151 52.836 3.71484 53.556 3.71484C54.0627 3.71484 54.5293 3.78818 54.956 3.93484C55.3827 4.08151 55.7627 4.28818 56.096 4.55484L55.176 6.89484C55.0027 6.80151 54.836 6.72818 54.676 6.67484C54.516 6.62151 54.3693 6.59484 54.236 6.59484C53.996 6.59484 53.796 6.63484 53.636 6.71484C53.476 6.79484 53.356 6.92151 53.276 7.09484C53.2093 7.25484 53.176 7.45484 53.176 7.69484V18.5548H51.576C51.216 18.5548 50.896 18.5548 50.616 18.5548C50.3493 18.5548 50.1293 18.5548 49.956 18.5548ZM48.416 10.8748V8.23484H55.356V10.8748H48.416Z" fill="black"/>
<path id="i" d="M57.7087 18.7348V8.11484H60.9087V18.7348H57.7087ZM59.3087 6.01484C58.7087 6.01484 58.2353 5.87484 57.8887 5.59484C57.5553 5.30151 57.3887 4.88818 57.3887 4.35484C57.3887 3.87484 57.562 3.48151 57.9087 3.17484C58.2553 2.86818 58.722 2.71484 59.3087 2.71484C59.9087 2.71484 60.3753 2.86151 60.7087 3.15484C61.042 3.43484 61.2087 3.83484 61.2087 4.35484C61.2087 4.84818 61.0353 5.24818 60.6887 5.55484C60.3553 5.86151 59.8953 6.01484 59.3087 6.01484Z" fill="black"/>
<path id="x" d="M69.7846 18.7347L67.5246 15.3147L66.4846 13.8547L62.2846 8.11475H66.1246L68.3046 11.3747L69.4446 12.9347L73.5846 18.7347H69.7846ZM62.1846 18.7347L66.4646 12.7747L68.1846 14.8347L65.9646 18.7347H62.1846ZM69.2046 14.1147L67.5046 12.0747L69.6046 8.11475H73.3846L69.2046 14.1147Z" fill="black"/>
</g>
</svg>
