<svg width="237" height="60" viewBox="0 0 237 60" fill="none" xmlns="http://www.w3.org/2000/svg">
<g id="Group 632679">
<g id="Group 632715">
<g id="Group 632676">
<g id="Group">
<path id="Vector" d="M54.3465 22.8032C53.4029 22.3525 52.3456 22.0996 51.2279 22.0996C50.7845 22.0996 50.3502 22.1399 49.9288 22.2169C49.8647 22.2279 49.8005 22.2407 49.7364 22.2554C49.632 22.2755 49.5294 22.3012 49.4267 22.3268C49.3498 22.3451 49.2747 22.3653 49.1995 22.3891L49.1776 22.3946C49.0181 22.4404 48.8606 22.4936 48.7066 22.5522C48.2101 22.7354 47.7392 22.9718 47.3013 23.2576" fill="#E43C37"/>
<path id="Vector_2" d="M58.3298 28.7452C58.1649 27.0741 57.5877 25.8226 56.9922 24.9468C56.9886 24.9431 56.9867 24.9395 56.9831 24.9358C56.2886 24.0325 55.3853 23.2959 54.3464 22.8012C53.0583 22.2863 51.8874 22.136 50.8741 22.18C50.8192 22.1818 50.766 22.1855 50.7111 22.1892C50.6396 22.1928 50.5663 22.1983 50.4967 22.2057C50.3904 22.2148 50.286 22.2276 50.1815 22.2423C50.1522 22.2441 50.1211 22.2496 50.0917 22.2551C50.0551 22.2606 50.0185 22.2661 49.9818 22.2716C49.9433 22.2771 49.9049 22.2844 49.8664 22.2918C49.8316 22.2973 49.7949 22.3046 49.7601 22.3101C49.7253 22.3174 49.6905 22.3248 49.6575 22.3321C49.6263 22.3376 49.5952 22.3449 49.564 22.3522C49.5274 22.3596 49.4908 22.3687 49.4559 22.3761C49.1591 22.4457 48.8843 22.53 48.6351 22.6198C48.5966 22.6344 48.5581 22.6472 48.5215 22.6619C48.2613 22.759 48.0286 22.8635 47.8252 22.9661C47.7959 22.9807 47.7665 22.9954 47.7391 23.01C47.7116 23.0229 47.6841 23.0375 47.6584 23.0522C47.631 23.0668 47.6053 23.0797 47.5797 23.0943C47.5302 23.1218 47.4825 23.1493 47.4367 23.175C47.4129 23.1878 47.3909 23.2024 47.3689 23.2153C47.3469 23.2299 47.3231 23.2427 47.3011 23.2556C47.2792 23.2702 47.2572 23.2831 47.237 23.2959C47.1747 23.3362 47.1197 23.3728 47.0721 23.4058C47.0574 23.415 47.0428 23.426 47.03 23.4351C46.9823 23.47 46.9347 23.5048 46.887 23.5396C46.8779 23.5469 46.8705 23.5524 46.8614 23.5597C46.8559 23.5634 46.8541 23.5652 46.8541 23.5652C46.264 24.4301 45.674 25.1392 45.0895 25.7145C44.9759 25.8556 44.855 25.993 44.7286 26.1231C44.7506 26.0773 44.7744 26.0334 44.7982 25.9894C39.7355 30.6215 35.2006 25.4708 35.1034 25.3591C35.1016 25.3591 35.1016 25.3572 35.1016 25.3572C34.9257 25.108 34.7333 24.8698 34.5281 24.6463C33.2015 23.1933 31.2922 22.2826 29.1704 22.2826C25.1631 22.2826 21.9145 25.5313 21.9145 29.5386C21.9145 33.5458 25.1631 36.7927 29.1704 36.7927C31.8914 36.7927 34.2624 35.2957 35.5029 33.0804C40.003 27.5633 44.8953 32.9778 44.8953 32.9778C46.4729 35.4459 45.7602 37.8664 45.2343 39.0336C41.9874 44.5196 36.0086 48.197 29.1704 48.197C18.8655 48.197 10.512 39.8435 10.512 29.5367C10.512 19.23 18.6676 11.078 28.8021 10.882C28.9249 10.8801 29.0476 10.8783 29.1704 10.8783C29.656 10.8783 30.136 10.8966 30.6124 10.9333C33.2894 10.5833 35.349 8.34788 35.349 5.64339C35.349 3.08548 33.5038 0.947175 31.0375 0.426798C30.42 0.388319 29.7971 0.368164 29.1704 0.368164H29.022C12.9801 0.448786 0 13.4765 0 29.5367C0 45.597 13.0607 58.7072 29.1704 58.7072C45.2801 58.7072 57.5658 46.4105 58.306 30.9586C58.3298 30.4877 58.3408 30.0131 58.3408 29.5367C58.3408 29.2729 58.3372 29.009 58.3298 28.7452ZM34.8139 34.0186C34.9147 33.8683 35.0155 33.7217 35.1181 33.5843C34.9569 33.8372 34.8396 33.9874 34.8139 34.0186ZM35.1914 25.491C35.2005 25.502 35.2079 25.5148 35.2152 25.5258C35.294 25.6431 35.3691 25.7622 35.4369 25.8849C35.36 25.7549 35.2775 25.6229 35.1914 25.491Z" fill="#E43C37"/>
<path id="Vector_3" d="M35.1186 33.5879C34.9574 33.8407 34.8401 33.991 34.8145 34.0221C34.9152 33.8719 35.016 33.7253 35.1186 33.5879Z" fill="#E43C37"/>
<path id="Vector_4" d="M35.4365 25.8852C35.3595 25.7551 35.277 25.6231 35.1909 25.4912C35.2001 25.5022 35.2074 25.515 35.2147 25.526C35.2935 25.6433 35.3687 25.7624 35.4365 25.8852Z" fill="#E43C37"/>
<path id="Vector_5" d="M45.0895 25.7178C44.9759 25.8589 44.8549 25.9963 44.7285 26.1264C44.7505 26.0806 44.7743 26.0366 44.7981 25.9926" fill="#E43C37"/>
<path id="Vector_6" d="M54.3472 22.8003C53.059 22.2854 51.8882 22.1352 50.8749 22.1791C50.82 22.181 50.7668 22.1846 50.7118 22.1883C50.6404 22.192 50.5671 22.1975 50.4975 22.2048C50.3894 22.2139 50.2849 22.2268 50.1823 22.2414C50.153 22.2433 50.1218 22.2488 50.0925 22.2543C50.0559 22.2598 50.0192 22.2653 49.9826 22.2707C49.9441 22.2762 49.9056 22.2836 49.8671 22.2909C49.8323 22.2964 49.7957 22.3037 49.7609 22.3092C49.7261 22.3166 49.6912 22.3239 49.6583 22.3312C49.6271 22.3367 49.596 22.344 49.5648 22.3514C49.5282 22.3587 49.4915 22.366 49.4567 22.3752C49.1599 22.4448 48.885 22.5291 48.6358 22.6189C48.5973 22.6335 48.5589 22.6464 48.5222 22.661C48.262 22.7581 48.0293 22.8626 47.8259 22.9652C47.7966 22.9799 47.7673 22.9945 47.7398 23.0092C47.7124 23.022 47.6849 23.0367 47.6592 23.0513C47.6317 23.066 47.6061 23.0788 47.5804 23.0935C47.531 23.1209 47.4833 23.1484 47.4375 23.1741C47.8369 22.9249 48.262 22.716 48.7073 22.5493C48.8612 22.4925 49.0188 22.4393 49.1782 22.3917C49.1855 22.3898 49.1929 22.388 49.2002 22.3862C49.2753 22.3642 49.3504 22.3422 49.4274 22.3239C49.53 22.2982 49.6326 22.2726 49.737 22.2524C49.8012 22.2378 49.8653 22.2249 49.9294 22.2139C50.3509 22.137 50.7851 22.0967 51.2286 22.0967C52.3463 22.0967 53.4035 22.3495 54.3472 22.8003Z" fill="#E43C37"/>
<path id="Vector_7" d="M30.6121 10.9339C30.3702 10.9687 30.1229 10.9852 29.87 10.9852C29.5035 10.9852 29.1462 10.9504 28.8018 10.8826C28.9245 10.8807 29.0473 10.8789 29.1701 10.8789C29.6556 10.8789 30.1357 10.8972 30.6121 10.9339Z" fill="#E43C37"/>
<path id="Vector_8" d="M35.1186 33.5879C34.9574 33.8407 34.8401 33.991 34.8145 34.0221C34.9152 33.8719 35.016 33.7253 35.1186 33.5879Z" fill="#E43C37"/>
<path id="Vector_9" d="M35.4365 25.8852C35.3595 25.7551 35.277 25.6231 35.1909 25.4912C35.2001 25.5022 35.2074 25.515 35.2147 25.526C35.2935 25.6433 35.3687 25.7624 35.4365 25.8852Z" fill="#E43C37"/>
<path id="Vector_10" d="M45.0895 25.7178C44.9759 25.8589 44.8549 25.9963 44.7285 26.1264C44.7505 26.0806 44.7743 26.0366 44.7981 25.9926C44.8952 25.9065 44.9924 25.8149 45.0895 25.7178Z" fill="#E43C37"/>
<path id="Vector_11" d="M47.0301 23.4355C46.9825 23.4704 46.9348 23.5052 46.8872 23.54C46.9165 23.5162 46.9642 23.4795 47.0301 23.4355Z" fill="#E43C37"/>
<path id="Vector_12" d="M56.9834 24.9374C56.2889 24.034 55.3856 23.2975 54.3467 22.8027C54.6985 22.9438 55.0613 23.1106 55.4296 23.3103C55.4296 23.3103 56.2211 23.8178 56.9834 24.9374Z" fill="#E43C37"/>
</g>
<path id="Vector_13" d="M26.9968 29.5386C28.197 29.5386 29.17 28.5657 29.17 27.3655C29.17 26.1653 28.197 25.1924 26.9968 25.1924C25.7967 25.1924 24.8237 26.1653 24.8237 27.3655C24.8237 28.5657 25.7967 29.5386 26.9968 29.5386Z" fill="white"/>
</g>
<g id="raffix">
<path d="M62.8848 58.7074V24.7234H72.6128L73.0608 35.7954L71.1408 33.6834C71.6528 31.8487 72.4848 30.206 73.6368 28.7554C74.8314 27.3047 76.2181 26.1527 77.7968 25.2994C79.3754 24.446 81.0608 24.0194 82.8528 24.0194C83.6208 24.0194 84.3248 24.0834 84.9648 24.2114C85.6474 24.3394 86.2661 24.4887 86.8208 24.6594L84.0048 35.9874C83.5354 35.6887 82.8954 35.454 82.0848 35.2834C81.3168 35.07 80.5061 34.9634 79.6528 34.9634C78.7141 34.9634 77.8394 35.134 77.0288 35.4754C76.2181 35.774 75.5354 36.222 74.9808 36.8194C74.4261 37.4167 73.9781 38.1207 73.6368 38.9314C73.3381 39.742 73.1888 40.6594 73.1888 41.6834V58.7074H62.8848Z" fill="#E43C37"/>
<path d="M103.116 59.2834C100.258 59.2834 97.6976 58.5367 95.4363 57.0434C93.2176 55.5074 91.4469 53.4167 90.1243 50.7714C88.8016 48.0834 88.1403 45.054 88.1403 41.6834C88.1403 38.2274 88.8016 35.1767 90.1243 32.5314C91.4469 29.886 93.2603 27.8167 95.5643 26.3234C97.8683 24.7874 100.492 24.0194 103.436 24.0194C105.058 24.0194 106.53 24.254 107.852 24.7234C109.218 25.1927 110.412 25.854 111.436 26.7074C112.46 27.518 113.335 28.478 114.06 29.5874C114.786 30.654 115.319 31.806 115.66 33.0434L113.548 32.7874V24.7234H123.724V58.7074H113.356V50.5154L115.66 50.4514C115.319 51.646 114.764 52.7767 113.996 53.8434C113.228 54.91 112.29 55.8487 111.18 56.6594C110.071 57.47 108.834 58.11 107.468 58.5794C106.103 59.0487 104.652 59.2834 103.116 59.2834ZM105.932 50.6434C107.511 50.6434 108.876 50.2807 110.028 49.5554C111.18 48.83 112.076 47.806 112.716 46.4834C113.356 45.118 113.676 43.518 113.676 41.6834C113.676 39.8487 113.356 38.27 112.716 36.9474C112.076 35.582 111.18 34.5367 110.028 33.8114C108.876 33.0434 107.511 32.6594 105.932 32.6594C104.396 32.6594 103.052 33.0434 101.9 33.8114C100.791 34.5367 99.9163 35.582 99.2763 36.9474C98.6363 38.27 98.3163 39.8487 98.3163 41.6834C98.3163 43.518 98.6363 45.118 99.2763 46.4834C99.9163 47.806 100.791 48.83 101.9 49.5554C103.052 50.2807 104.396 50.6434 105.932 50.6434Z" fill="#E43C37"/>
<path d="M134.872 58.7074V23.0594C134.872 20.8407 135.341 18.8354 136.28 17.0434C137.261 15.2514 138.605 13.8434 140.312 12.8194C142.061 11.7527 144.088 11.2194 146.392 11.2194C148.013 11.2194 149.506 11.454 150.872 11.9234C152.237 12.3927 153.453 13.054 154.52 13.9074L151.576 21.3954C151.021 21.0967 150.488 20.862 149.976 20.6914C149.464 20.5207 148.994 20.4354 148.568 20.4354C147.8 20.4354 147.16 20.5634 146.648 20.8194C146.136 21.0754 145.752 21.4807 145.496 22.0354C145.282 22.5474 145.176 23.1874 145.176 23.9554V58.7074H140.056C138.904 58.7074 137.88 58.7074 136.984 58.7074C136.13 58.7074 135.426 58.7074 134.872 58.7074ZM129.944 34.1314V25.6834H152.152V34.1314H129.944ZM160.024 58.7074V23.0594C160.024 20.8407 160.493 18.8354 161.432 17.0434C162.413 15.2514 163.757 13.8434 165.464 12.8194C167.213 11.7527 169.24 11.2194 171.544 11.2194C173.165 11.2194 174.658 11.454 176.024 11.9234C177.389 12.3927 178.605 13.054 179.672 13.9074L176.728 21.3954C176.173 21.0967 175.64 20.862 175.128 20.6914C174.616 20.5207 174.146 20.4354 173.72 20.4354C172.952 20.4354 172.312 20.5634 171.8 20.8194C171.288 21.0754 170.904 21.4807 170.648 22.0354C170.434 22.5474 170.328 23.1874 170.328 23.9554V58.7074H165.208C164.056 58.7074 163.032 58.7074 162.136 58.7074C161.282 58.7074 160.578 58.7074 160.024 58.7074ZM155.096 34.1314V25.6834H177.304V34.1314H155.096ZM183.64 58.7074V24.7234H193.88V58.7074H183.64ZM188.76 18.0034C186.84 18.0034 185.325 17.5554 184.216 16.6594C183.149 15.7207 182.616 14.398 182.616 12.6914C182.616 11.1554 183.17 9.89669 184.28 8.91536C185.389 7.93403 186.882 7.44336 188.76 7.44336C190.68 7.44336 192.173 7.91269 193.24 8.85136C194.306 9.74736 194.84 11.0274 194.84 12.6914C194.84 14.27 194.285 15.55 193.176 16.5314C192.109 17.5127 190.637 18.0034 188.76 18.0034Z" fill="#E43C37"/>
<path d="M224.438 58.7074L217.206 47.7634L213.878 43.0914L200.438 24.7234H212.726L219.702 35.1554L223.35 40.1474L236.598 58.7074H224.438ZM200.118 58.7074L213.814 39.6354L219.318 46.2274L212.214 58.7074H200.118ZM222.582 43.9234L217.142 37.3954L223.862 24.7234H235.958L222.582 43.9234Z" fill="#E43C37"/>
</g>
</g>
</g>
</svg>
