<svg width="74" height="20" viewBox="0 0 74 20" fill="none" xmlns="http://www.w3.org/2000/svg">
<g id="Graffix Logo">
<path id="Vector" d="M18.7592 9.79089C18.7068 9.25941 18.5232 8.86138 18.3338 8.58282C18.3326 8.58165 18.3321 8.58049 18.3309 8.57932C18.11 8.29202 17.8227 8.05775 17.4923 7.9004C17.0826 7.73664 16.7102 7.68886 16.388 7.70284C16.3705 7.70343 16.3536 7.70459 16.3361 7.70576C16.3134 7.70692 16.2901 7.70867 16.2679 7.711C16.2341 7.71392 16.2009 7.718 16.1677 7.72266C16.1583 7.72324 16.1484 7.72499 16.1391 7.72674C16.1275 7.72849 16.1158 7.73023 16.1041 7.73198C16.0919 7.73373 16.0797 7.73606 16.0674 7.73839C16.0564 7.74014 16.0447 7.74247 16.0336 7.74422C16.0226 7.74655 16.0115 7.74888 16.001 7.75121C15.9911 7.75296 15.9812 7.75529 15.9713 7.75762C15.9596 7.75996 15.948 7.76287 15.9369 7.7652C15.8425 7.78734 15.7551 7.81415 15.6758 7.84271C15.6636 7.84737 15.6513 7.85145 15.6397 7.85611C15.5569 7.887 15.4829 7.92022 15.4182 7.95285C15.4089 7.95751 15.3996 7.96217 15.3908 7.96684C15.3821 7.97092 15.3734 7.97558 15.3652 7.98024C15.3565 7.9849 15.3483 7.98898 15.3401 7.99364C15.3244 8.00239 15.3093 8.01113 15.2947 8.01929C15.2871 8.02336 15.2801 8.02803 15.2731 8.03211C15.2661 8.03677 15.2586 8.04085 15.2516 8.04493C15.2446 8.04959 15.2376 8.05367 15.2312 8.05775C15.2114 8.07057 15.1939 8.08222 15.1787 8.09271C15.1741 8.09563 15.1694 8.09912 15.1653 8.10204C15.1502 8.11311 15.135 8.12418 15.1199 8.13525C15.1169 8.13759 15.1146 8.13933 15.1117 8.14166C15.11 8.14283 15.1094 8.14341 15.1094 8.14341C14.9217 8.41848 14.7341 8.64401 14.5482 8.827C14.512 8.87187 14.4736 8.91558 14.4334 8.95695C14.4404 8.94238 14.4479 8.9284 14.4555 8.91441C12.8453 10.3876 11.403 8.74949 11.3721 8.71394C11.3715 8.71394 11.3715 8.71336 11.3715 8.71336C11.3156 8.6341 11.2544 8.55834 11.1891 8.48724C10.7672 8.02511 10.16 7.73548 9.48512 7.73548C8.21061 7.73548 7.17737 8.76872 7.17737 10.0432C7.17737 11.3177 8.21061 12.3504 9.48512 12.3504C10.3505 12.3504 11.1046 11.8743 11.4991 11.1697C12.9304 9.415 14.4864 11.1371 14.4864 11.1371C14.9882 11.9221 14.7615 12.6919 14.5942 13.0631C13.5615 14.8079 11.66 15.9775 9.48512 15.9775C6.20765 15.9775 3.55083 13.3207 3.55083 10.0426C3.55083 6.76459 6.14472 4.17188 9.36798 4.10952C9.40703 4.10894 9.44607 4.10836 9.48512 4.10836C9.63955 4.10836 9.79223 4.11419 9.94375 4.12584C10.7952 4.01453 11.4502 3.30356 11.4502 2.4434C11.4502 1.62986 10.8634 0.949778 10.079 0.784273C9.88256 0.772035 9.68442 0.765625 9.48512 0.765625H9.43791C4.33582 0.791267 0.20752 4.93472 0.20752 10.0426C0.20752 15.1506 4.36146 19.3202 9.48512 19.3202C14.6088 19.3202 18.5162 15.4093 18.7516 10.4949C18.7592 10.3451 18.7627 10.1942 18.7627 10.0426C18.7627 9.95872 18.7616 9.87481 18.7592 9.79089ZM11.28 11.4681C11.3121 11.4203 11.3441 11.3737 11.3768 11.33C11.3255 11.4104 11.2882 11.4582 11.28 11.4681ZM11.4001 8.7559C11.403 8.7594 11.4053 8.76347 11.4077 8.76697C11.4327 8.80427 11.4566 8.84215 11.4782 8.88119C11.4537 8.83982 11.4275 8.79786 11.4001 8.7559Z" fill="black"/>
<path id="Vector_2" d="M9.94442 4.12588C9.8675 4.13695 9.78883 4.1422 9.7084 4.1422C9.59185 4.1422 9.47821 4.13113 9.36865 4.10956C9.4077 4.10898 9.44674 4.1084 9.48579 4.1084C9.64022 4.1084 9.7929 4.11423 9.94442 4.12588Z" fill="black"/>
<path id="Vector_3" d="M8.79418 10.0434C9.1759 10.0434 9.48534 9.73401 9.48534 9.35229C9.48534 8.97058 9.1759 8.66113 8.79418 8.66113C8.41247 8.66113 8.10303 8.97058 8.10303 9.35229C8.10303 9.73401 8.41247 10.0434 8.79418 10.0434Z" fill="white"/>
<path id="r" d="M20.1646 19.3205V8.70047H23.2046L23.3446 12.1605L22.7446 11.5005C22.9046 10.9271 23.1646 10.4138 23.5246 9.96047C23.8979 9.50714 24.3312 9.14714 24.8246 8.88047C25.3179 8.6138 25.8446 8.48047 26.4046 8.48047C26.6446 8.48047 26.8646 8.50047 27.0646 8.54047C27.2779 8.58047 27.4712 8.62714 27.6446 8.68047L26.7646 12.2205C26.6179 12.1271 26.4179 12.0538 26.1646 12.0005C25.9246 11.9338 25.6712 11.9005 25.4046 11.9005C25.1112 11.9005 24.8379 11.9538 24.5846 12.0605C24.3312 12.1538 24.1179 12.2938 23.9446 12.4805C23.7712 12.6671 23.6312 12.8871 23.5246 13.1405C23.4312 13.3938 23.3846 13.6805 23.3846 14.0005V19.3205H20.1646Z" fill="black"/>
<path id="a" d="M32.9842 19.5005C32.0909 19.5005 31.2909 19.2671 30.5842 18.8005C29.8909 18.3205 29.3375 17.6671 28.9242 16.8405C28.5109 16.0005 28.3042 15.0538 28.3042 14.0005C28.3042 12.9205 28.5109 11.9671 28.9242 11.1405C29.3375 10.3138 29.9042 9.66714 30.6242 9.20047C31.3442 8.72047 32.1642 8.48047 33.0842 8.48047C33.5909 8.48047 34.0509 8.5538 34.4642 8.70047C34.8909 8.84714 35.2642 9.0538 35.5842 9.32047C35.9042 9.5738 36.1775 9.8738 36.4042 10.2205C36.6309 10.5538 36.7975 10.9138 36.9042 11.3005L36.2442 11.2205V8.70047H39.4242V19.3205H36.1842V16.7605L36.9042 16.7405C36.7975 17.1138 36.6242 17.4671 36.3842 17.8005C36.1442 18.1338 35.8509 18.4271 35.5042 18.6805C35.1575 18.9338 34.7709 19.1338 34.3442 19.2805C33.9175 19.4271 33.4642 19.5005 32.9842 19.5005ZM33.8642 16.8005C34.3575 16.8005 34.7842 16.6871 35.1442 16.4605C35.5042 16.2338 35.7842 15.9138 35.9842 15.5005C36.1842 15.0738 36.2842 14.5738 36.2842 14.0005C36.2842 13.4271 36.1842 12.9338 35.9842 12.5205C35.7842 12.0938 35.5042 11.7671 35.1442 11.5405C34.7842 11.3005 34.3575 11.1805 33.8642 11.1805C33.3842 11.1805 32.9642 11.3005 32.6042 11.5405C32.2575 11.7671 31.9842 12.0938 31.7842 12.5205C31.5842 12.9338 31.4842 13.4271 31.4842 14.0005C31.4842 14.5738 31.5842 15.0738 31.7842 15.5005C31.9842 15.9138 32.2575 16.2338 32.6042 16.4605C32.9642 16.6871 33.3842 16.8005 33.8642 16.8005Z" fill="black"/>
<path id="a_2" d="M32.9842 19.5005C32.0909 19.5005 31.2909 19.2671 30.5842 18.8005C29.8909 18.3205 29.3375 17.6671 28.9242 16.8405C28.5109 16.0005 28.3042 15.0538 28.3042 14.0005C28.3042 12.9205 28.5109 11.9671 28.9242 11.1405C29.3375 10.3138 29.9042 9.66714 30.6242 9.20047C31.3442 8.72047 32.1642 8.48047 33.0842 8.48047C33.5909 8.48047 34.0509 8.5538 34.4642 8.70047C34.8909 8.84714 35.2642 9.0538 35.5842 9.32047C35.9042 9.5738 36.1775 9.8738 36.4042 10.2205C36.6309 10.5538 36.7975 10.9138 36.9042 11.3005L36.2442 11.2205V8.70047H39.4242V19.3205H36.1842V16.7605L36.9042 16.7405C36.7975 17.1138 36.6242 17.4671 36.3842 17.8005C36.1442 18.1338 35.8509 18.4271 35.5042 18.6805C35.1575 18.9338 34.7709 19.1338 34.3442 19.2805C33.9175 19.4271 33.4642 19.5005 32.9842 19.5005ZM33.8642 16.8005C34.3575 16.8005 34.7842 16.6871 35.1442 16.4605C35.5042 16.2338 35.7842 15.9138 35.9842 15.5005C36.1842 15.0738 36.2842 14.5738 36.2842 14.0005C36.2842 13.4271 36.1842 12.9338 35.9842 12.5205C35.7842 12.0938 35.5042 11.7671 35.1442 11.5405C34.7842 11.3005 34.3575 11.1805 33.8642 11.1805C33.3842 11.1805 32.9642 11.3005 32.6042 11.5405C32.2575 11.7671 31.9842 12.0938 31.7842 12.5205C31.5842 12.9338 31.4842 13.4271 31.4842 14.0005C31.4842 14.5738 31.5842 15.0738 31.7842 15.5005C31.9842 15.9138 32.2575 16.2338 32.6042 16.4605C32.9642 16.6871 33.3842 16.8005 33.8642 16.8005Z" fill="black"/>
<path id="f" d="M42.2378 19.3205V8.18047C42.2378 7.48714 42.3844 6.86047 42.6778 6.30047C42.9844 5.74047 43.4044 5.30047 43.9378 4.98047C44.4844 4.64714 45.1178 4.48047 45.8378 4.48047C46.3444 4.48047 46.8111 4.5538 47.2378 4.70047C47.6644 4.84714 48.0444 5.0538 48.3778 5.32047L47.4578 7.66047C47.2844 7.56714 47.1178 7.4938 46.9578 7.44047C46.7978 7.38714 46.6511 7.36047 46.5178 7.36047C46.2778 7.36047 46.0778 7.40047 45.9178 7.48047C45.7578 7.56047 45.6378 7.68714 45.5578 7.86047C45.4911 8.02047 45.4578 8.22047 45.4578 8.46047V19.3205H43.8578C43.4978 19.3205 43.1778 19.3205 42.8978 19.3205C42.6311 19.3205 42.4111 19.3205 42.2378 19.3205ZM40.6978 11.6405V9.00047H47.6378V11.6405H40.6978Z" fill="black"/>
<path id="f_2" d="M50.1635 19.3205V8.18047C50.1635 7.48714 50.3102 6.86047 50.6035 6.30047C50.9102 5.74047 51.3302 5.30047 51.8635 4.98047C52.4102 4.64714 53.0435 4.48047 53.7635 4.48047C54.2702 4.48047 54.7369 4.5538 55.1635 4.70047C55.5902 4.84714 55.9702 5.0538 56.3035 5.32047L55.3835 7.66047C55.2102 7.56714 55.0435 7.4938 54.8835 7.44047C54.7235 7.38714 54.5769 7.36047 54.4435 7.36047C54.2035 7.36047 54.0035 7.40047 53.8435 7.48047C53.6835 7.56047 53.5635 7.68714 53.4835 7.86047C53.4169 8.02047 53.3835 8.22047 53.3835 8.46047V19.3205H51.7835C51.4235 19.3205 51.1035 19.3205 50.8235 19.3205C50.5569 19.3205 50.3369 19.3205 50.1635 19.3205ZM48.6235 11.6405V9.00047H55.5635V11.6405H48.6235Z" fill="black"/>
<path id="i" d="M57.9162 19.5005V8.88047H61.1162V19.5005H57.9162ZM59.5162 6.78047C58.9162 6.78047 58.4429 6.64047 58.0962 6.36047C57.7629 6.06714 57.5962 5.6538 57.5962 5.12047C57.5962 4.64047 57.7695 4.24714 58.1162 3.94047C58.4629 3.6338 58.9295 3.48047 59.5162 3.48047C60.1162 3.48047 60.5829 3.62714 60.9162 3.92047C61.2495 4.20047 61.4162 4.60047 61.4162 5.12047C61.4162 5.6138 61.2429 6.0138 60.8962 6.32047C60.5629 6.62714 60.1029 6.78047 59.5162 6.78047Z" fill="black"/>
<path id="x" d="M69.9921 19.4999L67.7321 16.0799L66.6921 14.6199L62.4921 8.87988H66.3321L68.5121 12.1399L69.6521 13.6999L73.7921 19.4999H69.9921ZM62.3921 19.4999L66.6721 13.5399L68.3921 15.5999L66.1721 19.4999H62.3921ZM69.4121 14.8799L67.7121 12.8399L69.8121 8.87988H73.5921L69.4121 14.8799Z" fill="black"/>
</g>
</svg>
