<svg width="20" height="18" viewBox="0 0 20 18" fill="none" xmlns="http://www.w3.org/2000/svg">
<g id="Vector 20">
<path d="M14.75 0.555542C10 0.555542 9.99999 6.63554 9.99999 6.63554C9.99999 6.63554 9.99993 0.555542 5.25 0.555542C1.17857 0.555542 0.5 3.83681 0.5 5.57396C0.5 7.3111 1.17858 8.46919 2.875 10.5924C4.57142 12.7155 9.99999 17.4444 9.99999 17.4444C9.99999 17.4444 15.4286 12.7155 17.125 10.5924C18.8214 8.46919 19.5 7.3111 19.5 5.57396C19.5 3.83681 18.8214 0.555542 14.75 0.555542Z" fill="#D9D9D9"/>
<path d="M14.75 0.555542C10 0.555542 9.99999 6.63554 9.99999 6.63554C9.99999 6.63554 9.99993 0.555542 5.25 0.555542C1.17857 0.555542 0.5 3.83681 0.5 5.57396C0.5 7.3111 1.17858 8.46919 2.875 10.5924C4.57142 12.7155 9.99999 17.4444 9.99999 17.4444C9.99999 17.4444 15.4286 12.7155 17.125 10.5924C18.8214 8.46919 19.5 7.3111 19.5 5.57396C19.5 3.83681 18.8214 0.555542 14.75 0.555542Z" fill="black"/>
<path d="M14.75 0.555542C10 0.555542 9.99999 6.63554 9.99999 6.63554C9.99999 6.63554 9.99993 0.555542 5.25 0.555542C1.17857 0.555542 0.5 3.83681 0.5 5.57396C0.5 7.3111 1.17858 8.46919 2.875 10.5924C4.57142 12.7155 9.99999 17.4444 9.99999 17.4444C9.99999 17.4444 15.4286 12.7155 17.125 10.5924C18.8214 8.46919 19.5 7.3111 19.5 5.57396C19.5 3.83681 18.8214 0.555542 14.75 0.555542Z" stroke="black" stroke-linecap="round" stroke-linejoin="round"/>
</g>
</svg>
