<svg width="14" height="19" viewBox="0 0 14 19" fill="none" xmlns="http://www.w3.org/2000/svg">
<g id="Group 8747">
<path id="Rectangle 22" d="M4.33103 17.6496L11.7901 16.5071C12.5969 16.3835 13.0003 16.3217 13.2414 16.042C13.4825 15.7622 13.4841 15.3541 13.4872 14.5379L13.5297 3.55846C13.5329 2.74221 13.5344 2.33408 13.2955 2.05251C13.0566 1.77093 12.6537 1.70602 11.8478 1.57618L4.39787 0.375922C3.325 0.203072 2.78857 0.116648 2.43732 0.414664C2.08608 0.712681 2.08397 1.25603 2.07977 2.34272L2.02822 15.665C2.02402 16.7517 2.02192 17.295 2.37085 17.5957C2.71978 17.8965 3.25686 17.8142 4.33103 17.6496Z" fill="black"/>
<path id="Vector 10" d="M10.035 9.03873L10.3872 9.39364L10.7421 9.04146L10.3899 8.68654L10.035 9.03873ZM1.03701 8.50391C0.76087 8.50284 0.536147 8.72583 0.535079 9.00197C0.534011 9.27811 0.757001 9.50283 1.03314 9.5039L1.03701 8.50391ZM6.37174 13.3781L10.3872 9.39364L9.68282 8.68381L5.66738 12.6683L6.37174 13.3781ZM10.3899 8.68654L6.40543 4.6711L5.6956 5.37546L9.68009 9.39091L10.3899 8.68654ZM10.0369 8.53873L1.03701 8.50391L1.03314 9.5039L10.0331 9.53872L10.0369 8.53873Z" fill="white"/>
</g>
</svg>
