<svg width="16" height="20" viewBox="0 0 16 20" fill="none" xmlns="http://www.w3.org/2000/svg">
<g id="Group 8750">
<g id="Vector">
<path d="M8.00278 8.03084e-05C8.04003 0.000164367 8.07727 0.000248425 8.11564 0.00033503C8.65414 0.00228673 9.17318 0.0164346 9.69849 0.129279C9.75373 0.140281 9.75373 0.140281 9.81009 0.151504C11.8704 0.567058 13.6392 1.69318 14.7884 3.24955C15.5985 4.38848 16.0039 5.6652 16 7.00607C15.9999 7.03856 15.9999 7.07106 15.9999 7.10454C15.9977 7.66494 15.9489 8.20136 15.8063 8.74904C15.7961 8.78896 15.7859 8.82888 15.7754 8.87001C15.4825 9.98164 14.9731 11.0121 14.39 12.0253C14.366 12.0673 14.3419 12.1093 14.3171 12.1525C14.068 12.5854 13.8112 13.0125 13.5194 13.4243C13.4502 13.522 13.3818 13.6202 13.3133 13.7183C12.4994 14.8793 11.6184 16.0015 10.7101 17.1063C10.5258 17.3306 10.3442 17.5565 10.1636 17.7831C10.0533 17.9212 9.94228 18.0587 9.82936 18.1952C9.61272 18.457 9.39839 18.7195 9.19278 18.9882C9.16761 19.0211 9.16761 19.0211 9.14193 19.0546C9.0589 19.1631 8.97624 19.2718 8.894 19.3808C8.86371 19.4206 8.83343 19.4604 8.80223 19.5013C8.77553 19.5367 8.74882 19.5721 8.72131 19.6085C8.5941 19.7588 8.45922 19.878 8.28218 19.982C8.16236 19.9951 8.16236 19.9951 8.02491 19.9966C7.9799 19.9978 7.93488 19.9989 7.8885 20C7.66659 19.971 7.54714 19.8943 7.41097 19.7434C7.32788 19.64 7.24864 19.5349 7.17015 19.4287C7.11118 19.3507 7.05217 19.2727 6.99311 19.1948C6.96407 19.1562 6.93503 19.1177 6.90511 19.078C6.78962 18.9258 6.67072 18.7759 6.55051 18.6267C6.52925 18.6002 6.50799 18.5737 6.48609 18.5465C6.30231 18.3184 6.11622 18.0918 5.92999 17.8653C5.74589 17.6411 5.56446 17.4154 5.38393 17.189C5.24794 17.0187 5.11028 16.8497 4.97137 16.6813C4.64991 16.2915 4.33885 15.8962 4.03324 15.4966C4.00497 15.4597 3.9767 15.4227 3.94757 15.3847C3.55313 14.8683 3.16496 14.3492 2.79396 13.8195C2.76872 13.7837 2.74347 13.7479 2.71746 13.711C2.26067 13.0615 1.85373 12.3962 1.46617 11.7133C1.44501 11.6765 1.42385 11.6397 1.40205 11.6018C0.881861 10.6955 0.480447 9.74016 0.226896 8.74904C0.217026 8.71113 0.207155 8.67322 0.196986 8.63416C-0.0452682 7.66235 -0.0800793 6.52321 0.182636 5.55076C0.19297 5.50807 0.19297 5.50807 0.203512 5.46452C0.643894 3.64883 1.97067 2.07037 3.72342 1.06536C5.02275 0.347618 6.47381 -0.0061281 8.00278 8.03084e-05ZM5.24988 4.51882C4.52031 5.14825 4.07485 5.98567 4.06066 6.88902C4.06254 7.91244 4.40212 8.78539 5.22635 9.53352C5.98861 10.1912 7.00451 10.5228 8.06087 10.5432C8.95958 10.5246 9.86165 10.2503 10.5394 9.72412C10.5746 9.69908 10.6098 9.67404 10.6461 9.64825C11.3646 9.11783 11.7944 8.34524 11.9557 7.53993C12.0353 6.46966 11.8003 5.53674 10.9876 4.70637C10.2599 3.98975 9.27926 3.59905 8.19901 3.53019C7.09073 3.48056 6.05301 3.85398 5.24988 4.51882Z" fill="black"/>
<path d="M8.90355 5.15677C8.93556 5.16754 8.96756 5.17831 9.00053 5.1894C9.53631 5.39183 9.89541 5.81392 10.1319 6.26369C10.3256 6.70102 10.3406 7.25471 10.1526 7.69539C9.87872 8.23325 9.45623 8.64375 8.82843 8.87322C8.79987 8.88378 8.7713 8.89433 8.74187 8.90521C8.18159 9.07371 7.52141 9.00502 6.99267 8.79806C6.47441 8.57179 6.08309 8.18762 5.86117 7.72211C5.84309 7.68459 5.84309 7.68459 5.82464 7.64631C5.65033 7.20191 5.68806 6.63742 5.89873 6.20922C5.91103 6.18119 5.92333 6.15317 5.936 6.1243C6.16718 5.65516 6.64921 5.34072 7.16287 5.13365C7.70643 4.94904 8.36785 4.95469 8.90355 5.15677Z" fill="black"/>
</g>
</g>
</svg>
