<svg width="22" height="20" viewBox="0 0 22 20" fill="none" xmlns="http://www.w3.org/2000/svg">
<g id="Vector 20">
<path d="M11 18.4444C10.6716 18.8214 10.6715 18.8214 10.6715 18.8214L10.6713 18.8212L10.6705 18.8205L10.6674 18.8178L10.6555 18.8075L10.6094 18.7671C10.5689 18.7317 10.5094 18.6796 10.4332 18.6126C10.2808 18.4785 10.0614 18.2849 9.79287 18.0459C9.25591 17.568 8.52201 16.9085 7.73462 16.1821C6.17112 14.7397 4.3605 13.001 3.48438 11.9045C1.78021 9.77161 1 8.49555 1 6.57396C1 5.65663 1.17653 4.29125 1.92977 3.13963C2.70537 1.95382 4.05427 1.05554 6.25 1.05554C7.55461 1.05554 8.56075 1.47677 9.32063 2.1252C10.0711 2.76559 10.5563 3.60545 10.872 4.41362C10.9179 4.53134 10.9605 4.64891 11 4.76571C11.0394 4.64891 11.082 4.53134 11.128 4.41362C11.4437 3.60545 11.9289 2.76559 12.6793 2.1252C13.4392 1.47677 14.4454 1.05554 15.75 1.05554C17.9457 1.05554 19.2946 1.95382 20.0702 3.13963C20.8235 4.29125 21 5.65663 21 6.57395C21 8.49555 20.2198 9.77162 18.5156 11.9045C17.6395 13.001 15.8289 14.7397 14.2654 16.1821C13.478 16.9085 12.7441 17.568 12.2071 18.0459C11.9386 18.2849 11.7192 18.4785 11.5668 18.6126C11.4906 18.6796 11.4311 18.7317 11.3906 18.7671L11.3444 18.8075L11.3326 18.8178L11.3295 18.8205L11.3287 18.8212L11.3285 18.8214C11.3284 18.8214 11.3284 18.8214 11 18.4444ZM11 18.4444L10.6716 18.8214C10.8598 18.9854 11.1402 18.9854 11.3284 18.8214L11 18.4444Z" fill="white"/>
<path d="M11 18.4444C10.6716 18.8214 10.6715 18.8214 10.6715 18.8214L10.6713 18.8212L10.6705 18.8205L10.6674 18.8178L10.6555 18.8075L10.6094 18.7671C10.5689 18.7317 10.5094 18.6796 10.4332 18.6126C10.2808 18.4785 10.0614 18.2849 9.79287 18.0459C9.25591 17.568 8.52201 16.9085 7.73462 16.1821C6.17112 14.7397 4.3605 13.001 3.48438 11.9045C1.78021 9.77161 1 8.49555 1 6.57396C1 5.65663 1.17653 4.29125 1.92977 3.13963C2.70537 1.95382 4.05427 1.05554 6.25 1.05554C7.55461 1.05554 8.56075 1.47677 9.32063 2.1252C10.0711 2.76559 10.5563 3.60545 10.872 4.41362C10.9179 4.53134 10.9605 4.64891 11 4.76571C11.0394 4.64891 11.082 4.53134 11.128 4.41362C11.4437 3.60545 11.9289 2.76559 12.6793 2.1252C13.4392 1.47677 14.4454 1.05554 15.75 1.05554C17.9457 1.05554 19.2946 1.95382 20.0702 3.13963C20.8235 4.29125 21 5.65663 21 6.57395C21 8.49555 20.2198 9.77162 18.5156 11.9045C17.6395 13.001 15.8289 14.7397 14.2654 16.1821C13.478 16.9085 12.7441 17.568 12.2071 18.0459C11.9386 18.2849 11.7192 18.4785 11.5668 18.6126C11.4906 18.6796 11.4311 18.7317 11.3906 18.7671L11.3444 18.8075L11.3326 18.8178L11.3295 18.8205L11.3287 18.8212L11.3285 18.8214C11.3284 18.8214 11.3284 18.8214 11 18.4444ZM11 18.4444L10.6716 18.8214C10.8598 18.9854 11.1402 18.9854 11.3284 18.8214L11 18.4444Z" stroke="black" stroke-linecap="round" stroke-linejoin="round"/>
<path d="M11 18.4444C10.6716 18.8214 10.6715 18.8214 10.6715 18.8214L10.6713 18.8212L10.6705 18.8205L10.6674 18.8178L10.6555 18.8075L10.6094 18.7671C10.5689 18.7317 10.5094 18.6796 10.4332 18.6126C10.2808 18.4785 10.0614 18.2849 9.79287 18.0459C9.25591 17.568 8.52201 16.9085 7.73462 16.1821C6.17112 14.7397 4.3605 13.001 3.48438 11.9045C1.78021 9.77161 1 8.49555 1 6.57396C1 5.65663 1.17653 4.29125 1.92977 3.13963C2.70537 1.95382 4.05427 1.05554 6.25 1.05554C7.55461 1.05554 8.56075 1.47677 9.32063 2.1252C10.0711 2.76559 10.5563 3.60545 10.872 4.41362C10.9179 4.53134 10.9605 4.64891 11 4.76571C11.0394 4.64891 11.082 4.53134 11.128 4.41362C11.4437 3.60545 11.9289 2.76559 12.6793 2.1252C13.4392 1.47677 14.4454 1.05554 15.75 1.05554C17.9457 1.05554 19.2946 1.95382 20.0702 3.13963C20.8235 4.29125 21 5.65663 21 6.57395C21 8.49555 20.2198 9.77162 18.5156 11.9045C17.6395 13.001 15.8289 14.7397 14.2654 16.1821C13.478 16.9085 12.7441 17.568 12.2071 18.0459C11.9386 18.2849 11.7192 18.4785 11.5668 18.6126C11.4906 18.6796 11.4311 18.7317 11.3906 18.7671L11.3444 18.8075L11.3326 18.8178L11.3295 18.8205L11.3287 18.8212L11.3285 18.8214C11.3284 18.8214 11.3284 18.8214 11 18.4444ZM11 18.4444L10.6716 18.8214C10.8598 18.9854 11.1402 18.9854 11.3284 18.8214L11 18.4444Z" stroke="black" stroke-linecap="round" stroke-linejoin="round"/>
</g>
</svg>
