<svg width="24" height="24" viewBox="0 0 24 24" fill="none" xmlns="http://www.w3.org/2000/svg">
<g id="Icons/Position">
<g id="Vector">
<path d="M18.7895 9.89474C18.7895 14.2549 15.2549 17.7895 10.8947 17.7895C6.53459 17.7895 3 14.2549 3 9.89474C3 5.53459 6.53459 2 10.8947 2C15.2549 2 18.7895 5.53459 18.7895 9.89474Z" fill="#202020"/>
<path d="M10.8947 22C10.3882 19.7284 9.9064 18.5133 8.6157 16.4737H13.1737C11.9564 18.4155 11.4945 19.6484 10.8947 22Z" fill="#202020"/>
<path d="M10.8947 22L10.4067 22.1088C10.4571 22.3347 10.6558 22.4964 10.8871 22.4999C11.1185 22.5035 11.322 22.3478 11.3792 22.1236L10.8947 22ZM8.6157 16.4737V15.9737C8.43343 15.9737 8.26561 16.0729 8.1777 16.2325C8.08979 16.3922 8.09572 16.587 8.19319 16.7411L8.6157 16.4737ZM13.1737 16.4737L13.5974 16.7393C13.694 16.5852 13.6993 16.3907 13.6112 16.2316C13.5231 16.0725 13.3556 15.9737 13.1737 15.9737V16.4737ZM18.2895 9.89474C18.2895 13.9787 14.9787 17.2895 10.8947 17.2895V18.2895C15.531 18.2895 19.2895 14.531 19.2895 9.89474H18.2895ZM10.8947 17.2895C6.81074 17.2895 3.5 13.9787 3.5 9.89474H2.5C2.5 14.531 6.25845 18.2895 10.8947 18.2895V17.2895ZM3.5 9.89474C3.5 5.81074 6.81074 2.5 10.8947 2.5V1.5C6.25845 1.5 2.5 5.25845 2.5 9.89474H3.5ZM10.8947 2.5C14.9787 2.5 18.2895 5.81074 18.2895 9.89474H19.2895C19.2895 5.25845 15.531 1.5 10.8947 1.5V2.5ZM13.0263 9.89474C13.0263 11.072 12.072 12.0263 10.8947 12.0263V13.0263C12.6243 13.0263 14.0263 11.6243 14.0263 9.89474H13.0263ZM10.8947 12.0263C9.7175 12.0263 8.76316 11.072 8.76316 9.89474H7.76316C7.76316 11.6243 9.16521 13.0263 10.8947 13.0263V12.0263ZM8.76316 9.89474C8.76316 8.7175 9.7175 7.76316 10.8947 7.76316V6.76316C9.16521 6.76316 7.76316 8.16521 7.76316 9.89474H8.76316ZM10.8947 7.76316C12.072 7.76316 13.0263 8.7175 13.0263 9.89474H14.0263C14.0263 8.16521 12.6243 6.76316 10.8947 6.76316V7.76316ZM11.3827 21.8912C10.8641 19.5654 10.3608 18.2964 9.03821 16.2063L8.19319 16.7411C9.45197 18.7302 9.91223 19.8914 10.4067 22.1088L11.3827 21.8912ZM8.6157 16.9737H13.1737V15.9737H8.6157V16.9737ZM12.7501 16.2081C11.4986 18.2043 11.0194 19.4883 10.4102 21.8764L11.3792 22.1236C11.9697 19.8086 12.4141 18.6267 13.5974 16.7393L12.7501 16.2081Z" fill="#202020"/>
</g>
</g>
</svg>
